# xmcd
#
# Track frame offsets:
#	150
#	19408
#	45945
#	82995
#	124621
#	152716
#	198927
#	222919
#	259920
#	265714
#	295849
#
# Disc length: 4257 seconds
#
# Revision: 1
# Processed by: cddbd v1.5.2PL0 Copyright (c) Steve Scherf et al.
# Submitted via: audiograbber 1.83.01
#
DISCID=92109f0b
DTITLE=Grateful Dead - 86-06-21 Greek Theatre, Berkeley CA
DYEAR=1900
DGENRE=
TTITLE0=Alabama Getaway
TTITLE1=Promised Land
TTITLE2=Friend Of The Devil
TTITLE3=CC Rider
TTITLE4=Loser
TTITLE5=Desolation Row
TTITLE6=China Cat Sunflower
TTITLE7=I Know You Rider
TTITLE8=Stage Banter
TTITLE9=Saint Of Circumstance
TTITLE10=Gimme Some Lovin
EXTD=
EXTT0=
EXTT1=
EXTT2=
EXTT3=
EXTT4=
EXTT5=
EXTT6=
EXTT7=
EXTT8=
EXTT9=
EXTT10=
PLAYORDER=
